<svg viewBox="0 0 1416.38 199.02">
<style type="text/css">
	.st0{fill:#A7DCDE;}
	.st1{opacity:0.75;fill:#3D85C5;}
	.st2{opacity:0.5;fill:#3D85C5;}
	.st3{fill:#67C7C5;}
	.st4{fill:#3D85C5;}
</style>
<g id="Logo">
	<g>
		<path class="st0" d="M4.47,56.1c2.61-3.4,7.49-4.04,10.88-1.42l21.41,16.47l1.62-2.09L3.02,41.83C-0.37,39.22-1,34.36,1.61,30.96
			c2.61-3.39,7.48-4.01,10.86-1.41l35.37,27.24l1.61-2.11L6.14,21.32c-3.39-2.61-4.02-7.49-1.41-10.88c2.6-3.4,7.48-4.02,10.86-1.41
			L58.91,42.4l1.63-2.11L29.84,16.64c-3.39-2.62-4.03-7.48-1.41-10.88c2.61-3.39,7.46-4.02,10.86-1.41L80.25,35.9l-5.67-17.01
			c-1.87-3.86-0.24-8.49,3.61-10.34c3.86-1.86,8.49-0.24,10.35,3.61l23.56,58.59c2.2,9.74,0.32,20.29-6.22,28.8
			c-11.1,14.38-31.27,17.64-46.38,7.98c-0.99-0.31-24.86-18.42-24.86-18.42L5.87,66.97C2.5,64.34,1.86,59.48,4.47,56.1z"/>
		<path class="st0" d="M143.57,5.62c3.4,2.61,4.03,7.48,1.42,10.87L128.51,37.9l2.09,1.62l27.24-35.36
			c2.61-3.39,7.47-4.02,10.87-1.41c3.39,2.61,4.02,7.48,1.42,10.86l-27.24,35.37l2.11,1.61l33.36-43.33
			c2.61-3.38,7.49-4.02,10.88-1.41c3.4,2.6,4.02,7.48,1.41,10.86l-33.36,43.32l2.1,1.64l23.66-30.71c2.62-3.4,7.48-4.03,10.88-1.41
			c3.38,2.61,4.02,7.46,1.4,10.86L163.76,81.4l17.01-5.67c3.87-1.86,8.5-0.23,10.35,3.62c1.85,3.86,0.24,8.49-3.61,10.35
			l-58.59,23.55c-9.74,2.21-20.3,0.32-28.8-6.22c-14.38-11.1-17.64-31.27-7.99-46.37c0.31-0.99,18.43-24.86,18.43-24.86L132.7,7.02
			C135.33,3.64,140.19,3,143.57,5.62z"/>
		<path class="st0" d="M193.77,144.07c-2.61,3.4-7.49,4.04-10.88,1.42l-21.41-16.48l-1.62,2.09l35.35,27.24
			c3.39,2.61,4.02,7.47,1.41,10.87c-2.61,3.39-7.49,4.02-10.86,1.42l-35.37-27.24l-1.61,2.11l43.32,33.36
			c3.38,2.61,4.02,7.49,1.41,10.87c-2.6,3.4-7.48,4.02-10.87,1.41l-43.33-33.37l-1.63,2.11l30.71,23.65
			c3.39,2.62,4.03,7.48,1.41,10.88c-2.61,3.38-7.47,4.01-10.86,1.4l-40.96-31.55l5.66,17.01c1.87,3.87,0.24,8.49-3.61,10.35
			c-3.87,1.86-8.49,0.24-10.35-3.61l-23.56-58.59c-2.2-9.74-0.32-20.3,6.22-28.8c11.09-14.38,31.27-17.64,46.38-7.98
			c0.99,0.31,24.86,18.42,24.86,18.42l28.78,22.14C195.74,135.83,196.39,140.69,193.77,144.07z"/>
		<path class="st0" d="M54.67,194.55c-3.4-2.61-4.04-7.48-1.41-10.87l16.47-21.41l-2.08-1.61L40.4,196
			c-2.61,3.39-7.47,4.03-10.87,1.41c-3.39-2.61-4.02-7.48-1.42-10.86l27.24-35.38l-2.11-1.61l-33.35,43.32
			c-2.62,3.38-7.49,4.02-10.88,1.41c-3.4-2.6-4.02-7.48-1.41-10.86l33.37-43.33l-2.11-1.63l-23.66,30.71
			c-2.62,3.39-7.48,4.03-10.87,1.41c-3.38-2.61-4.02-7.46-1.41-10.86l31.54-40.97l-17.01,5.67c-3.87,1.86-8.49,0.24-10.35-3.62
			c-1.86-3.86-0.24-8.48,3.61-10.35l58.59-23.55c9.74-2.21,20.3-0.32,28.8,6.22c14.38,11.09,17.64,31.26,7.99,46.37
			c-0.31,0.99-18.43,24.86-18.43,24.86l-22.14,28.78C62.91,196.52,58.05,197.16,54.67,194.55z"/>
	</g>
	<path class="st1" d="M104.93,99.89c-1.64-2.26-3.58-4.36-5.81-6.22c-0.34-0.29-0.68-0.56-1.03-0.83
		c-8.4-6.45-18.81-8.32-28.42-6.13l-24.14,9.7l-0.05,0.01c6.54,4.92,13.98,10.46,14.52,10.63c12.16,7.77,27.66,7.06,38.9-1.18
		l0.27-0.2c2.1-1.58,4.13-3.53,5.88-5.63L104.93,99.89z"/>
	<path class="st1" d="M98.93,105.64c-2.21-1.86-4.18-4.07-5.8-6.32l0.14-0.17c1.76-2.11,3.73-3.94,5.86-5.51
		c11.25-8.34,26.83-9.09,39.04-1.29c0.54,0.18,7.98,5.71,14.53,10.62h-0.02l-24.17,9.72c-9.61,2.18-20.03,0.31-28.42-6.14
		c-0.32-0.25-0.64-0.5-0.95-0.76L98.93,105.64z"/>
	<path class="st1" d="M99.19,105.53c2.24-1.61,4.31-3.51,6.15-5.72c0.28-0.33,0.55-0.67,0.82-1.01c6.38-8.27,8.23-18.54,6.1-28.03
		l-9.53-23.84l-0.01-0.05c-4.86,6.45-10.34,13.78-10.51,14.31c-7.69,11.99-7.01,27.28,1.09,38.38l0.2,0.26
		c1.55,2.08,3.48,4.08,5.55,5.82L99.19,105.53z"/>
	<path class="st1" d="M92.91,99.41c1.81-2.19,3.98-4.16,6.2-5.76l0.16,0.13c2.09,1.73,3.91,3.66,5.48,5.74
		c8.29,11.04,9.14,26.41,1.51,38.51c-0.16,0.53-5.59,7.9-10.39,14.39v-0.02l-9.74-23.78c-2.21-9.47-0.44-19.76,5.88-28.08
		c0.24-0.32,0.49-0.64,0.74-0.94L92.91,99.41z"/>
	<path class="st2" d="M112.25,70.76c1.26,5.61,1.09,11.49-0.55,17.08c5.65-1.32,11.6-1.2,17.28,0.41c0.04-0.06,0.09-0.11,0.12-0.17
		l10.22-23.96l0.02-0.02c-8.1,1.15-17.27,2.5-17.78,2.76c-3.38,0.74-6.53,1.98-9.42,3.6L112.25,70.76z"/>
	<path class="st2" d="M70.53,86.57c5.68-1.14,11.6-0.91,17.21,0.87c-1.34-5.67-1.2-11.66,0.45-17.36c-0.08-0.05-0.15-0.11-0.23-0.16
		L64.37,59.8l-0.04-0.03c1.12,8,2.44,17.05,2.68,17.55C67.74,80.64,68.95,83.73,70.53,86.57z"/>
	<path class="st2" d="M127.87,112.79c-5.71,1.18-11.66,0.97-17.3-0.8c1.33,5.6,1.21,11.51-0.37,17.15c0.07,0.05,0.14,0.11,0.21,0.16
		l23.7,9.93l0.02,0.01c-1.19-7.98-2.57-17.03-2.83-17.52C130.58,118.52,129.39,115.54,127.87,112.79z"/>
	<path class="st2" d="M86.13,128.63c-1.31-5.61-1.18-11.49,0.42-17.09c-5.66,1.34-11.63,1.23-17.32-0.37
		c-0.03,0.04-0.07,0.08-0.09,0.13l-10.2,23.94l-0.03,0.04c8.1-1.15,17.28-2.5,17.78-2.75c3.43-0.75,6.62-2.01,9.55-3.67
		L86.13,128.63z"/>
</g>
<g id="Title">
	<g>
		<path class="st3" d="M334.49,150.11h26.79V154H338.7v13.33h20.19v3.83H338.7v16.24h-4.21V150.11z"/>
		<path class="st3" d="M366.97,168.86v-0.11c0-10.28,7.72-19.28,19.07-19.28c11.34,0,18.96,8.89,18.96,19.17
			c0.05,0.06,0.05,0.06,0,0.11c0,10.28-7.73,19.29-19.07,19.29C374.59,188.04,366.97,179.14,366.97,168.86z M400.63,168.86v-0.11
			c0-8.47-6.18-15.4-14.7-15.4c-8.52,0-14.59,6.83-14.59,15.29v0.11c0,8.47,6.18,15.4,14.7,15.4S400.63,177.34,400.63,168.86z"/>
		<path class="st3" d="M413.88,150.11h16.03c4.58,0,8.26,1.39,10.6,3.73c1.81,1.81,2.88,4.42,2.88,7.35v0.11
			c0,6.17-4.26,9.79-10.12,10.86l11.45,15.23h-5.17l-10.81-14.48h-0.11h-10.55v14.48h-4.21V150.11z M429.53,169.13
			c5.6,0,9.59-2.87,9.59-7.67v-0.11c0-4.58-3.52-7.36-9.53-7.36h-11.51v15.13H429.53z"/>
		<path class="st3" d="M466.69,168.86v-0.11c0-10.55,7.88-19.28,18.86-19.28c6.77,0,10.81,2.39,14.54,5.91l-2.88,3.09
			c-3.14-2.98-6.66-5.12-11.72-5.12c-8.26,0-14.43,6.72-14.43,15.29v0.11c0,8.63,6.23,15.4,14.43,15.4c5.11,0,8.47-1.97,12.04-5.38
			l2.76,2.72c-3.88,3.94-8.15,6.55-14.91,6.55C474.63,188.04,466.69,179.57,466.69,168.86z"/>
		<path class="st3" d="M504.92,168.86v-0.11c0-10.28,7.72-19.28,19.07-19.28c11.34,0,18.97,8.89,18.97,19.17
			c0.05,0.06,0.05,0.06,0,0.11c0,10.28-7.73,19.29-19.07,19.29C512.54,188.04,504.92,179.14,504.92,168.86z M538.58,168.86v-0.11
			c0-8.47-6.18-15.4-14.7-15.4c-8.52,0-14.59,6.83-14.59,15.29v0.11c0,8.47,6.18,15.4,14.7,15.4
			C532.51,184.15,538.58,177.34,538.58,168.86z"/>
		<path class="st3" d="M551.83,150.11h4.27l13.58,20.35l13.59-20.35h4.26v37.29h-4.21v-30.2l-13.58,19.98h-0.21l-13.59-19.93v30.15
			h-4.1V150.11z"/>
		<path class="st3" d="M598.04,150.11h13.95c8.41,0,13.95,4.48,13.95,11.82v0.12c0,8.04-6.71,12.19-14.64,12.19h-9.06v13.15h-4.2
			V150.11z M611.46,170.41c6.18,0,10.23-3.3,10.23-8.2v-0.11c0-5.33-4-8.11-10.02-8.11h-9.43v16.41H611.46z"/>
		<path class="st3" d="M643.68,149.85h3.93l17,37.55h-4.53l-4.37-9.86h-20.3L631,187.4h-4.32L643.68,149.85z M654.05,173.77
			l-8.46-19.02l-8.52,19.02H654.05z"/>
		<path class="st3" d="M668.74,181.96l2.61-3.08c3.88,3.51,7.61,5.27,12.78,5.27c5.01,0,8.31-2.66,8.31-6.33v-0.11
			c0-3.46-1.86-5.44-9.69-7.09c-8.58-1.87-12.52-4.63-12.52-10.76v-0.12c0-5.85,5.16-10.16,12.25-10.16c5.43,0,9.32,1.54,13.1,4.58
			l-2.45,3.25c-3.46-2.82-6.93-4.05-10.76-4.05c-4.85,0-7.93,2.67-7.93,6.02v0.1c0,3.51,1.92,5.49,10.12,7.24
			c8.31,1.81,12.14,4.85,12.14,10.55v0.11c0,6.39-5.32,10.55-12.73,10.55C678.06,187.93,673.22,185.96,668.74,181.96z"/>
		<path class="st3" d="M702.29,181.96l2.61-3.08c3.89,3.51,7.61,5.27,12.78,5.27c5.01,0,8.31-2.66,8.31-6.33v-0.11
			c0-3.46-1.86-5.44-9.69-7.09c-8.57-1.87-12.52-4.63-12.52-10.76v-0.12c0-5.85,5.17-10.16,12.25-10.16c5.44,0,9.32,1.54,13.11,4.58
			l-2.45,3.25c-3.46-2.82-6.93-4.05-10.76-4.05c-4.85,0-7.93,2.67-7.93,6.02v0.1c0,3.51,1.92,5.49,10.12,7.24
			c8.31,1.81,12.14,4.85,12.14,10.55v0.11c0,6.39-5.33,10.55-12.73,10.55C711.61,187.93,706.76,185.96,702.29,181.96z"/>
		<path class="st3" d="M739.19,150.11h4.2v37.29h-4.2V150.11z"/>
		<path class="st3" d="M752.65,168.86v-0.11c0-10.28,7.72-19.28,19.07-19.28c11.34,0,18.97,8.89,18.97,19.17
			c0.05,0.06,0.05,0.06,0,0.11c0,10.28-7.72,19.29-19.08,19.29C760.27,188.04,752.65,179.14,752.65,168.86z M786.32,168.86v-0.11
			c0-8.47-6.18-15.4-14.7-15.4c-8.52,0-14.59,6.83-14.59,15.29v0.11c0,8.47,6.18,15.4,14.7,15.4
			C780.24,184.15,786.32,177.34,786.32,168.86z"/>
		<path class="st3" d="M799.56,150.11h3.94L826.99,180v-29.89h4.1v37.29h-3.36l-24.08-30.56v30.56h-4.1V150.11z"/>
		<path class="st3" d="M855.42,149.85h3.94l16.99,37.55h-4.53l-4.37-9.86h-20.29l-4.42,9.86h-4.32L855.42,149.85z M865.8,173.77
			l-8.47-19.02l-8.51,19.02H865.8z"/>
		<path class="st3" d="M888.75,154h-12.52v-3.88h29.29V154H893v33.4h-4.26V154z"/>
		<path class="st3" d="M913.39,150.11h26.95v3.84H917.6v12.73h20.35v3.84H917.6v13.05h23.01v3.83h-27.22V150.11z"/>
		<path class="st3" d="M965.03,150.11h4.21v16.57h21.52v-16.57h4.21v37.29h-4.21v-16.78h-21.52v16.78h-4.21V150.11z"/>
		<path class="st3" d="M1005.5,150.11h26.94v3.84h-22.74v12.73h20.35v3.84h-20.35v13.05h23.01v3.83h-27.21V150.11z"/>
		<path class="st3" d="M1054.97,149.85h3.94l16.99,37.55h-4.53l-4.37-9.86h-20.3l-4.42,9.86h-4.31L1054.97,149.85z M1065.35,173.77
			l-8.47-19.02l-8.52,19.02H1065.35z"/>
		<path class="st3" d="M1083.23,150.11h4.2v33.39h20.99v3.89h-25.19V150.11z"/>
		<path class="st3" d="M1120.71,154h-12.52v-3.88h29.3V154h-12.52v33.4h-4.26V154z"/>
		<path class="st3" d="M1145.36,150.11h4.21v16.57h21.52v-16.57h4.21v37.29h-4.21v-16.78h-21.52v16.78h-4.21V150.11z"/>
		<path class="st3" d="M1184.17,168.86v-0.11c0-10.55,7.88-19.28,18.85-19.28c6.76,0,10.81,2.39,14.53,5.91l-2.87,3.09
			c-3.15-2.98-6.66-5.12-11.72-5.12c-8.25,0-14.43,6.72-14.43,15.29v0.11c0,8.63,6.23,15.4,14.43,15.4c5.12,0,8.48-1.97,12.04-5.38
			l2.78,2.72c-3.89,3.94-8.15,6.55-14.92,6.55C1192.11,188.04,1184.17,179.57,1184.17,168.86z"/>
		<path class="st3" d="M1238.91,149.85h3.94l16.99,37.55h-4.53l-4.37-9.86h-20.3l-4.42,9.86h-4.32L1238.91,149.85z M1249.29,173.77
			l-8.46-19.02l-8.53,19.02H1249.29z"/>
		<path class="st3" d="M1267.18,150.11h16.03c4.58,0,8.26,1.39,10.61,3.73c1.8,1.81,2.87,4.42,2.87,7.35v0.11
			c0,6.17-4.26,9.79-10.12,10.86l11.45,15.23h-5.17l-10.81-14.48h-0.1h-10.55v14.48h-4.2V150.11z M1282.84,169.13
			c5.59,0,9.59-2.87,9.59-7.67v-0.11c0-4.58-3.52-7.36-9.54-7.36h-11.5v15.13H1282.84z"/>
		<path class="st3" d="M1305.67,150.11h26.95v3.84h-22.74v12.73h20.35v3.84h-20.35v13.05h23.01v3.83h-27.22V150.11z"/>
	</g>
	<g>
		<g>
			<path class="st4" d="M273.8,54.06c-0.32,0-0.65,0.65-0.65,0.82c-0.16,7.65-0.16,21.98,0,29.96c0,6.51,0.33,9.6,0.98,11.73
				c1.47,4.39,5.54,6.34,9.61,6.34c4.56,0,6.84-0.81,10.09-2.76c0.33,0.48-0.16,4.4-0.49,5.04c-4.07,5.05-10.91,7.17-16.12,7.17
				c-6.35,0-11.56-2.6-14.33-7.81c-2.12-3.91-2.28-8.15-2.28-18.57c0-9.28,0.16-23.93,0.16-30.45c0-0.49-0.33-1.3-0.98-1.47
				l-8.79-0.65c-0.16-0.97,0.81-4.56,1.47-5.37c2.28-0.33,6.35-1.15,7.65-1.8c0.16,0,0.65-0.65,0.65-1.14V31.27
				c2.61-1.3,8.63-5.37,10.42-7.49c0.81-0.32,2.44-0.32,2.93-0.16c-0.32,2.77-0.81,10.1-0.81,21.5c0,0.33,0.32,0.98,0.65,0.98
				c7.82,0,17.42-0.49,19.86-0.82c-0.49,2.28-1.3,6.51-1.46,8.96C288.3,54.23,279.99,54.06,273.8,54.06z"/>
			<path class="st4" d="M300.12,5.38c9.77-0.82,19.38-3.1,24.43-5.38c0.49,0.17,1.14,1.79,1.14,2.28
				c-1.31,2.61-1.63,4.23-1.79,15.31c-0.16,10.1-0.16,31.27-0.16,35.82c0,0.33,0.49,0.33,0.81,0.17c8.47-6.51,16.28-9.77,22.15-9.77
				c12.87,0,20.19,10.1,20.19,26.05c0,8.95,0,23.12,0.17,30.29c0,1.95,0.81,3.26,2.12,4.07c2.28,1.31,4.72,1.46,7.97,1.95
				c0.49,0.49,0.17,4.39-0.65,4.73c-2.77,0-9.12-0.5-16.28-0.5c-6.35,0-13.35,0.33-15.47,0.5c-0.65-0.65-0.65-4.07-0.16-4.73
				c2.61-0.33,4.88-0.65,6.51-1.14c2.44-0.81,3.09-1.95,3.25-8.46c0.16-7.99,0.49-24.27-0.65-31.76
				c-0.81-4.39-4.56-11.72-15.14-11.72c-4.07,0-8.96,1.63-12.7,4.4c-1.31,0.98-1.96,2.93-1.96,3.91c0,11.24,0,31.59,0.33,36.15
				c0.32,5.21,0.81,6.51,4.23,7.65c1.95,0.33,3.25,0.65,6.19,0.98c0.81,0.65,0.48,4.08-0.16,4.73c-2.12,0-7.66-0.5-17.1-0.5
				c-8.31,0-12.87,0.5-15.63,0.5c-0.65-0.65-0.65-4.07,0-4.73c2.76-0.33,4.39-0.65,5.86-1.14c2.77-0.98,3.42-2.44,3.58-7
				c0.16-3.91,0.33-23.28,0.33-27.03c0-39.41,0-49.83-0.49-55.85c-0.33-2.44-0.81-3.91-3.09-4.4c-1.95-0.48-4.88-0.81-7.82-1.14
				C299.31,9.12,299.47,5.7,300.12,5.38z"/>
			<path class="st4" d="M522.59,62.7c-0.48,0.65-3.74,0.81-4.39,0.32c-0.98-7-2.27-10.42-5.54-12.38c-2.12-1.3-4.72-1.95-7.98-1.95
				c-5.53,0-10.1,3.59-10.1,9.44c0,5.54,2.77,8.79,15.14,14.66c13.51,6.18,16.93,11.72,16.93,19.54c0,11.72-10.91,20.03-25.56,20.03
				c-6.03,0-13.36-1.46-17.11-3.09c-1.14-3.74-2.6-14.17-2.77-17.91c0.49-0.65,3.91-1.8,4.72-1.47c2.28,8.47,5.37,12.7,9.61,15.14
				c2.45,1.31,5.7,1.95,8.14,1.95c6.68,0,10.91-3.58,10.91-9.12c0-5.87-3.09-8.96-13.19-13.84c-13.19-6.51-17.91-12.38-17.91-21.01
				c0-10.09,7.98-19.21,23.94-19.21c3.75,0,7.82,0.48,10.58,0.98c2.61,0.48,5.21,0.81,6.51,0.98
				C523.41,50.64,523.08,56.02,522.59,62.7z"/>
			<path class="st4" d="M568.17,112.36c-10.41,0-17.91-3.9-23.28-11.23c-4.07-5.86-6.35-13.68-6.35-21.83
				c0-12.05,5.54-22.31,16.45-28.82c6.84-4.24,15.63-6.68,20.68-6.68c6.51,0,10.26,1.14,13.36,2.44c2.11,1.14,4.23,2.61,4.89,4.24
				c0,0.48-0.17,1.95-0.33,2.6c-0.98,2.44-4.07,6.03-5.54,6.68c-0.32,0.16-1.31,0.16-1.63,0c-3.42-3.42-9.61-8.63-17.91-8.63
				c-12.22,0-17.42,10.91-17.42,21.99c0,7.65,1.96,15.14,6.03,20.03c4.88,6.02,10.91,8.46,18.4,8.46c5.7,0,12.38-2.11,18.56-7.81
				c0.16,0,0.81,0.49,0.81,0.97c0,1.3-0.48,4.24-0.81,4.73C586.1,109.27,575.02,112.36,568.17,112.36z"/>
			<path class="st4" d="M598.95,5.38c9.77-0.82,19.37-3.1,24.42-5.38c0.49,0.17,1.14,1.79,1.14,2.28c-1.3,2.61-1.62,4.23-1.79,15.31
				c-0.16,10.1-0.16,31.27-0.16,35.82c0,0.33,0.49,0.33,0.82,0.17c8.46-6.51,16.28-9.77,22.14-9.77c12.87,0,20.2,10.1,20.2,26.05
				c0,8.95,0,23.12,0.16,30.29c0,1.95,0.81,3.26,2.12,4.07c2.27,1.31,4.72,1.46,7.98,1.95c0.48,0.49,0.16,4.39-0.66,4.73
				c-2.77,0-9.12-0.5-16.29-0.5c-6.35,0-13.35,0.33-15.47,0.5c-0.65-0.65-0.65-4.07-0.16-4.73c2.61-0.33,4.89-0.65,6.51-1.14
				c2.44-0.81,3.09-1.95,3.26-8.46c0.17-7.99,0.49-24.27-0.65-31.76c-0.81-4.39-4.56-11.72-15.15-11.72c-4.06,0-8.95,1.63-12.7,4.4
				c-1.3,0.98-1.95,2.93-1.95,3.91c0,11.24,0,31.59,0.33,36.15c0.33,5.21,0.82,6.51,4.24,7.65c1.96,0.33,3.26,0.65,6.19,0.98
				c0.82,0.65,0.49,4.08-0.16,4.73c-2.12,0-7.66-0.5-17.11-0.5c-8.3,0-12.86,0.5-15.63,0.5c-0.65-0.65-0.65-4.07,0-4.73
				c2.77-0.33,4.4-0.65,5.86-1.14c2.77-0.98,3.42-2.44,3.58-7c0.17-3.91,0.33-23.28,0.33-27.03c0-39.41,0-49.83-0.48-55.85
				c-0.33-2.44-0.82-3.91-3.1-4.4c-1.95-0.48-4.89-0.81-7.81-1.14C598.13,9.12,598.3,5.7,598.95,5.38z"/>
			<path class="st4" d="M672.44,45.6c2.6,0,8.15,0.49,16.12,0.49c5.7,0,13.51-0.32,16.61-0.49c0.65,0.49,0.65,3.75,0.16,4.72
				c-2.12,0.32-5.22,0.98-6.35,1.3c-1.79,0.66-1.96,1.96-1.63,3.1c1.3,6.35,9.12,32.41,11.23,38.43c0.32,0,0.49,0.17,0.65-0.16
				c4.24-10.42,12.87-33.06,15.64-43.31c1.95,0.32,6.35,0.16,7.97-0.17c0.81,3.42,2.28,7.66,4.23,13.19
				c4.07,11.88,10.26,28.17,11.4,30.94c0.17,0,0.49,0.33,0.65,0c2.93-7.49,10.59-30.12,12.06-36.8c0.32-2.61,0.32-4.07-2.77-5.05
				c-1.95-0.65-4.07-0.98-7.49-1.46c-0.32-1.15,0-4.07,0.65-4.72c2.28,0,9.12,0.49,14.49,0.49c6.68,0,11.07-0.32,14.16-0.49
				c0.65,0.81,0.65,3.91,0,4.72c-2.12,0.32-2.93,0.49-4.39,1.14c-4.4,1.3-5.7,3.42-7.49,7.49c-3.74,9.44-15.62,42.18-19.05,52.27
				c-1.95-0.32-6.19-0.16-7.98,0.16c-2.93-10.09-13.51-38.26-15.64-43.15c-0.16-0.16-0.65-0.16-0.81,0.16
				c-3.26,8.96-12.38,31.1-16.29,42.83c-1.8-0.32-6.03-0.32-7.82,0c-3.42-13.02-11.56-40.06-15.47-50.15
				c-2.44-6.68-3.42-8.63-7-9.77c-1.79-0.49-3.91-0.81-6.19-0.98C671.46,49.34,671.78,46.25,672.44,45.6z"/>
			<path class="st4" d="M815.56,58.46c-2.77-4.07-7.49-6.18-12.37-6.18c-3.59,0-5.7,0.97-6.51,1.62c-1.8,1.3-4.72,6.51-6.84,11.72
				c-0.49,0.65-4.89-1.79-4.73-3.26c0.33-2.28,2.77-8.63,3.75-9.61c7.01-4.89,17.26-8.95,21.33-8.95c7.16,0,12.53,3.26,16.12,8.63
				c2.77,4.56,3.74,10.26,3.74,16.13c0,8.46-0.65,21-0.65,27.51c0,3.42,1.3,6.52,6.19,6.52c2.6,0,3.75-0.16,5.7-0.82
				c0.16,0.65-0.16,4.39-0.66,4.89c-3.9,4.23-9.61,5.7-13.35,5.7c-4.57,0-7.17-1.79-8.31-4.23c-0.65-0.98-0.98-2.77-1.31-4.07
				c0-0.16-0.48-0.32-0.65-0.16c-8.3,5.21-15.15,8.47-19.38,8.47c-3.09,0-6.35-1.62-8.95-4.07c-3.26-3.59-5.54-8.64-5.54-14.33
				c0-3.1,2.12-8.14,2.93-9.28c5.37-2.94,24.59-7.49,30.77-10.59c0.33-0.17,0.97-1.14,0.97-1.63c0.33-1.47,0.16-3.26,0.16-4.4
				C818,64.81,817.51,61.23,815.56,58.46z M817.02,78.98c-6.03,2.12-16.45,5.37-19.38,7.49c-0.65,0.32-1.62,3.42-1.62,5.21
				c0,6.35,4.39,11.07,11.39,11.07c2.12,0,5.7-0.82,8.3-2.6c1.14-0.65,1.63-1.95,1.79-3.75c0.33-3.41,0.33-14,0.33-16.76
				C817.84,79.47,817.35,78.82,817.02,78.98z"/>
			<path class="st4" d="M894.86,47.39c0.16,0.49,0.16,1.95,0,2.61c-0.33,1.95-3.42,8.3-5.05,10.26c-0.16,0.17-1.14,0.65-1.3,0.65
				c-3.09-2.61-6.84-5.04-10.58-5.04c-3.26,0-6.52,3.42-8.63,6.84c-0.49,0.98-1.3,3.41-1.3,5.54c0,11.07,0.16,27.84,0.32,31.1
				c0.17,2.77,0.98,4.4,3.42,5.21c2.93,0.81,6.68,1.3,10.26,1.62c0.32,0.82,0.16,4.08-0.65,4.73c-1.95,0-12.53-0.5-19.05-0.5
				c-5.05,0-13.35,0.33-16.28,0.5c-0.49-0.65-0.65-4.07,0-4.73c1.95-0.16,4.56-0.65,6.35-1.3c1.63-0.65,2.6-1.63,2.93-4.56
				c0.33-2.61,0.49-16.12,0.49-27.36c0-6.02,0-10.91-0.16-12.86c-0.33-2.29-1.63-4.23-8.96-6.84c0-0.82,0.33-3.26,0.81-3.58
				c5.86-0.66,15.47-3.42,19.86-6.03c0.33,0,0.82,0.33,0.82,0.65c-0.16,2.28-0.32,9.44-0.32,12.54c0,0.48,0.48,0.48,0.81,0.32
				c3.09-3.91,6.51-7.66,10.26-10.26c2.61-1.95,5.21-3.09,8.31-3.09C890.3,43.81,893.56,45.11,894.86,47.39z"/>
			<path class="st4" d="M923.83,54.06c-0.33,0-0.66,0.65-0.66,0.82c-0.16,7.65-0.16,21.98,0,29.96c0,6.51,0.33,9.6,0.98,11.73
				c1.46,4.39,5.53,6.34,9.61,6.34c4.56,0,6.84-0.81,10.09-2.76c0.32,0.48-0.16,4.4-0.49,5.04c-4.07,5.05-10.9,7.17-16.11,7.17
				c-6.35,0-11.56-2.6-14.33-7.81c-2.12-3.91-2.28-8.15-2.28-18.57c0-9.28,0.16-23.93,0.16-30.45c0-0.49-0.32-1.3-0.97-1.47
				l-8.79-0.65c-0.16-0.97,0.81-4.56,1.46-5.37c2.28-0.33,6.35-1.15,7.65-1.8c0.16,0,0.65-0.65,0.65-1.14V31.27
				c2.61-1.3,8.63-5.37,10.42-7.49c0.82-0.32,2.44-0.32,2.93-0.16c-0.33,2.77-0.82,10.1-0.82,21.5c0,0.33,0.32,0.98,0.66,0.98
				c7.81,0,17.42-0.49,19.86-0.82c-0.49,2.28-1.3,6.51-1.46,8.96C938.32,54.23,930.02,54.06,923.83,54.06z"/>
			<path class="st4" d="M1002.15,48.37c-5.37,10.75-24.26,40.87-32.56,54.39c-0.33,0.49,0,1.14,0.32,1.14
				c4.55,0.98,17.42,1.3,21.16,1.3c2.28,0,6.68-3.9,11.57-14.98c0.49-0.49,3.74-0.98,4.56-0.98c0,0,0.48,0.32,0.48,0.49
				c-1.14,6.51-4.23,15.14-5.7,18.24c-0.98,2.11-3.09,3.42-4.72,3.42c-11.07,0-38.26-1.14-44.62-0.98
				c-0.32-0.32-0.82-2.44-0.82-2.92c8.63-13.19,27.03-41.03,34.2-55.04c0.32-0.33,0-0.82-0.16-0.82c-4.73,0-16.45,0-19.71,0.49
				c-3.74,0.33-6.35,1.63-11.39,14.33c-0.66,0.16-3.75-0.33-4.73-1.46c1.63-6.68,3.26-15.31,3.91-20.52
				c2.77,0.98,7.01,1.63,11.4,1.63h22.63c7,0,11.24-0.17,13.68-0.32C1001.99,45.92,1002.15,47.88,1002.15,48.37z"/>
			<path class="st4" d="M1076.56,112.36c-10.43,0-17.91-3.9-23.29-11.23c-4.07-5.86-6.35-13.68-6.35-21.83
				c0-12.05,5.54-22.31,16.45-28.82c6.84-4.24,15.63-6.68,20.68-6.68c6.51,0,10.26,1.14,13.36,2.44c2.11,1.14,4.23,2.61,4.88,4.24
				c0,0.48-0.16,1.95-0.32,2.6c-0.97,2.44-4.07,6.03-5.54,6.68c-0.33,0.16-1.3,0.16-1.63,0c-3.42-3.42-9.61-8.63-17.91-8.63
				c-12.22,0-17.43,10.91-17.43,21.99c0,7.65,1.95,15.14,6.03,20.03c4.88,6.02,10.91,8.46,18.4,8.46c5.7,0,12.38-2.11,18.56-7.81
				c0.16,0,0.81,0.49,0.81,0.97c0,1.3-0.48,4.24-0.81,4.73C1094.47,109.27,1083.4,112.36,1076.56,112.36z"/>
			<path class="st4" d="M1182.39,105.03c2.28-0.65,3.26-2.93,3.42-5.7c0.33-5.05,0.33-16.44,0.33-26.71
				c0-6.35-0.17-10.58-0.33-13.03c-0.49-2.28-2.44-3.91-8.47-6.19c-0.32-0.97,0.17-3.26,0.81-3.74c6.51-0.66,15.96-3.75,20.03-6.03
				c0.16,0.17,0.65,0.65,0.65,1.14c-0.16,1.79-0.32,6.51-0.32,9.28c0,0.33,0.49,0.5,0.81,0.33c8.47-7,16.45-10.58,22.14-10.58
				c7.01,0,12.05,3.09,15.64,8.47c3.1,4.88,4.23,11.39,4.23,19.21c0,9.12,0,23.78,0.32,29.47c0,1.3,0.49,2.61,1.63,3.09
				c2.6,1.3,4.88,1.63,8.14,2.12c0.49,0.82,0.32,3.91-0.49,4.73c-2.28,0-7.17-0.5-15.64-0.5c-7.48,0-12.21,0.33-16.12,0.5
				c-0.49-0.65-0.65-4.07,0-4.73c3.09-0.33,5.7-0.81,6.67-1.14c2.28-0.81,2.77-2.44,2.93-6.68c0.16-9.12,0.32-25.56-0.49-31.59
				c-0.33-2.6-1.46-7-4.56-9.6c-2.28-2.12-5.38-3.75-10.1-3.75s-9.77,1.95-13.51,5.21c-0.98,0.98-1.63,2.45-1.63,5.86
				c0,11.57,0,27.36,0.32,34.85c0.17,3.75,0.82,4.88,3.1,5.53c1.79,0.66,4.23,0.97,6.84,1.3c0.32,0.65,0.16,3.91-0.49,4.73
				c-2.44,0-7-0.5-15.96-0.5c-7.98,0-13.84,0.5-15.79,0.5c-0.66-0.65-0.66-4.07,0-4.73
				C1178.81,105.84,1180.43,105.53,1182.39,105.03z"/>
			<path class="st4" d="M1276.07,54.06c-0.32,0-0.65,0.65-0.65,0.82c-0.16,7.65-0.16,21.98,0,29.96c0,6.51,0.33,9.6,0.98,11.73
				c1.46,4.39,5.54,6.34,9.61,6.34c4.56,0,6.84-0.81,10.09-2.76c0.32,0.48-0.17,4.4-0.49,5.04c-4.08,5.05-10.91,7.17-16.12,7.17
				c-6.35,0-11.56-2.6-14.33-7.81c-2.11-3.91-2.28-8.15-2.28-18.57c0-9.28,0.16-23.93,0.16-30.45c0-0.49-0.33-1.3-0.98-1.47
				l-8.79-0.65c-0.16-0.97,0.82-4.56,1.47-5.37c2.28-0.33,6.35-1.15,7.65-1.8c0.16,0,0.65-0.65,0.65-1.14V31.27
				c2.6-1.3,8.63-5.37,10.42-7.49c0.82-0.32,2.44-0.32,2.93-0.16c-0.33,2.77-0.82,10.1-0.82,21.5c0,0.33,0.32,0.98,0.65,0.98
				c7.81,0,17.42-0.49,19.86-0.82c-0.49,2.28-1.3,6.51-1.46,8.96C1290.56,54.23,1282.26,54.06,1276.07,54.06z"/>
			<path class="st4" d="M1416.26,47.39c0.17,0.49,0.17,1.95,0,2.61c-0.33,1.95-3.42,8.3-5.05,10.26c-0.16,0.17-1.14,0.65-1.3,0.65
				c-3.1-2.61-6.84-5.04-10.59-5.04c-3.26,0-6.51,3.42-8.63,6.84c-0.49,0.98-1.3,3.41-1.3,5.54c0,11.07,0.16,27.84,0.33,31.1
				c0.16,2.77,0.97,4.4,3.42,5.21c2.92,0.81,6.68,1.3,10.26,1.62c0.32,0.82,0.16,4.08-0.66,4.73c-1.95,0-12.54-0.5-19.05-0.5
				c-5.05,0-13.35,0.33-16.29,0.5c-0.5-0.65-0.65-4.07,0-4.73c1.95-0.16,4.56-0.65,6.35-1.3c1.63-0.65,2.61-1.63,2.94-4.56
				c0.33-2.61,0.49-16.12,0.49-27.36c0-6.02,0-10.91-0.16-12.86c-0.33-2.29-1.63-4.23-8.96-6.84c0-0.82,0.33-3.26,0.82-3.58
				c5.86-0.66,15.47-3.42,19.87-6.03c0.32,0,0.81,0.33,0.81,0.65c-0.16,2.28-0.33,9.44-0.33,12.54c0,0.48,0.49,0.48,0.82,0.32
				c3.1-3.91,6.51-7.66,10.26-10.26c2.61-1.95,5.22-3.09,8.31-3.09C1411.7,43.81,1414.96,45.11,1416.26,47.39z"/>
		</g>
		<path class="st4" d="M436.68,95.75c-0.16-0.48-0.49-0.81-0.65-0.98c-6.03,4.88-12.05,6.84-18.56,6.84
			c-7.33,0-12.87-2.11-17.75-7.17c-3.91-4.23-6.35-11.07-6.67-16.61c0-0.81,0.32-1.63,0.98-1.79c12.61-0.3,32.39-1.43,40.78-3.14
			c0,0,1.39-1.17,1.31-2.45c-0.17-1.33-0.57-3.53-0.57-3.53c-1.3-9.13-7-23.12-22.8-23.12c-5.21,0-12.54,2.12-17.58,5.37
			c-8.3,5.54-14.33,15.15-14.33,29.48c0,9.28,2.61,19.22,9.28,25.89c4.89,5.04,11.4,7.81,19.87,7.81c7.49,0,18.73-4.07,25.89-12.21
			C436.2,99.66,436.85,96.89,436.68,95.75z M407.7,50c8.79,0,14.17,9.28,14.98,17.42c0,0.65-0.49,1.15-0.81,1.47
			c-3.26,0.65-22.47,1.3-27.69,0.98c-0.49,0-0.82-0.82-0.82-1.14C394.18,57.16,399.88,50,407.7,50z"/>
		<path class="st4" d="M1167.73,95.75c-0.16-0.48-0.49-0.81-0.65-0.98c-6.03,4.88-12.05,6.84-18.56,6.84
			c-7.33,0-12.87-2.11-17.75-7.17c-3.91-4.23-6.35-11.07-6.67-16.61c0-0.81,0.32-1.63,0.97-1.79c12.61-0.3,32.4-1.43,40.78-3.14
			c0,0,1.38-1.17,1.31-2.45c-0.17-1.33-0.57-3.53-0.57-3.53c-1.3-9.13-7-23.12-22.8-23.12c-5.21,0-12.54,2.12-17.58,5.37
			c-8.3,5.54-14.34,15.15-14.34,29.48c0,9.28,2.61,19.22,9.29,25.89c4.89,5.04,11.4,7.81,19.86,7.81c7.49,0,18.73-4.07,25.89-12.21
			C1167.24,99.66,1167.89,96.89,1167.73,95.75z M1138.75,50c8.79,0,14.17,9.28,14.98,17.42c0,0.65-0.49,1.15-0.81,1.47
			c-3.26,0.65-22.47,1.3-27.69,0.98c-0.49,0-0.81-0.82-0.81-1.14C1125.23,57.16,1130.93,50,1138.75,50z"/>
		<path class="st4" d="M1358.82,95.75c-0.16-0.48-0.48-0.81-0.65-0.98c-6.03,4.88-12.05,6.84-18.56,6.84
			c-7.33,0-12.87-2.11-17.75-7.17c-3.91-4.23-6.35-11.07-6.67-16.61c0-0.81,0.32-1.63,0.97-1.79c12.6-0.3,32.39-1.43,40.78-3.14
			c0,0,1.38-1.17,1.31-2.45c-0.17-1.33-0.57-3.53-0.57-3.53c-1.3-9.13-7-23.12-22.8-23.12c-5.21,0-12.54,2.12-17.58,5.37
			c-8.3,5.54-14.33,15.15-14.33,29.48c0,9.28,2.61,19.22,9.29,25.89c4.89,5.04,11.4,7.81,19.86,7.81c7.5,0,18.73-4.07,25.89-12.21
			C1358.33,99.66,1358.98,96.89,1358.82,95.75z M1329.83,50c8.79,0,14.17,9.28,14.98,17.42c0,0.65-0.48,1.15-0.81,1.47
			c-3.26,0.65-22.47,1.3-27.69,0.98c-0.49,0-0.81-0.82-0.81-1.14C1316.32,57.16,1322.01,50,1329.83,50z"/>
	</g>
</g>
</svg>
